<svg xmlns="http://www.w3.org/2000/svg" xmlns:xlink="http://www.w3.org/1999/xlink" width="95.028" height="89.133" viewBox="0 0 95.028 89.133">
  <defs>
    <clipPath id="clip-path">
      <rect id="Rectangle_3359" data-name="Rectangle 3359" width="2.97" height="2.97"/>
    </clipPath>
    <linearGradient id="linear-gradient" x1="-43.484" y1="59.247" x2="-43.365" y2="59.247" gradientUnits="objectBoundingBox">
      <stop offset="0" stop-color="#d03727"/>
      <stop offset="1" stop-color="#9e1d21"/>
    </linearGradient>
    <linearGradient id="linear-gradient-2" x1="-56.124" y1="59.247" x2="-56.005" y2="59.247" xlink:href="#linear-gradient"/>
    <linearGradient id="linear-gradient-3" x1="-43.484" y1="41.849" x2="-43.365" y2="41.849" xlink:href="#linear-gradient"/>
    <linearGradient id="linear-gradient-4" x1="-56.124" y1="41.849" x2="-56.005" y2="41.849" xlink:href="#linear-gradient"/>
    <clipPath id="clip-path-5">
      <path id="Path_12589" data-name="Path 12589" d="M80.536,50.84c-8.675,0-15.886,4.594-22.031,14.037L60.994,66.5c5.556-8.542,11.948-12.69,19.542-12.69a19.3,19.3,0,1,1,0,38.6c-7.595,0-13.986-4.148-19.517-12.644L52.083,64.882c-6.145-9.443-13.356-14.037-22.031-14.037H7.78v2.97H18.959a22.252,22.252,0,0,0,0,38.6h-.005c.23.133.466.261.7.389v2.581h10.4c8.675,0,15.886-4.594,22.031-14.037l-2.489-1.623c-5.556,8.537-11.948,12.69-19.542,12.69a19.3,19.3,0,1,1,0-38.6c7.595,0,13.986,4.148,19.512,12.644L58.5,81.352C64.65,90.8,71.861,95.389,80.536,95.389h22.272v-2.97H91.628a22.249,22.249,0,0,0-.005-38.6h.02c-.236-.138-.476-.271-.717-.4V50.845H80.536Z" transform="translate(-7.78 -50.84)"/>
    </clipPath>
    <radialGradient id="radial-gradient" cx="0.5" cy="0.499" r="1.068" gradientTransform="matrix(0.469, 0, 0, -0.924, -0.543, 7.37)" gradientUnits="objectBoundingBox">
      <stop offset="0" stop-color="#d03727"/>
      <stop offset="0.368" stop-color="#cd3627"/>
      <stop offset="0.603" stop-color="#c53126"/>
      <stop offset="0.801" stop-color="#b62924"/>
      <stop offset="0.977" stop-color="#a11f21"/>
      <stop offset="1" stop-color="#9e1d21"/>
    </radialGradient>
  </defs>
  <g id="Group_2907" data-name="Group 2907" transform="translate(-10854 240)">
    <path id="Path_12569" data-name="Path 12569" d="M38.37,92a10.57,10.57,0,1,1,0-21.14v.353a10.217,10.217,0,0,0,0,20.433V92m0,2.97a13.54,13.54,0,1,1,13.54-13.54,13.555,13.555,0,0,1-13.54,13.54v-.348a13.2,13.2,0,1,0-9.32-3.866,13.149,13.149,0,0,0,9.32,3.866v.348" transform="translate(10837.901 -276.697)" fill="#aea7b5"/>
    <rect id="Rectangle_3353" data-name="Rectangle 3353" width="2.97" height="2.97" transform="translate(10856.97 -224.053)" fill="#c5c0ca"/>
    <rect id="Rectangle_3354" data-name="Rectangle 3354" width="2.97" height="2.97" transform="translate(10862.905 -224.053)" fill="#9e1d21"/>
    <rect id="Rectangle_3355" data-name="Rectangle 3355" width="2.97" height="2.97" transform="translate(10868.846 -224.053)" fill="#c5c0ca"/>
    <rect id="Rectangle_3356" data-name="Rectangle 3356" width="2.97" height="2.97" transform="translate(10874.787 -224.053)" fill="#9e1d21"/>
    <rect id="Rectangle_3357" data-name="Rectangle 3357" width="2.97" height="2.97" transform="translate(10880.728 -224.053)" fill="#c5c0ca"/>
    <g id="Group_2888" data-name="Group 2888" transform="translate(10886.668 -224.053)">
      <g id="Group_2887" data-name="Group 2887" transform="translate(0 0)" clip-path="url(#clip-path)">
        <rect id="Rectangle_3358" data-name="Rectangle 3358" width="2.97" height="2.97" fill="url(#linear-gradient)"/>
      </g>
    </g>
    <rect id="Rectangle_3360" data-name="Rectangle 3360" width="2.97" height="2.97" transform="translate(10892.603 -224.053)" fill="#c5c0ca"/>
    <rect id="Rectangle_3361" data-name="Rectangle 3361" width="2.97" height="2.97" transform="translate(10898.544 -224.053)" fill="#d03727"/>
    <rect id="Rectangle_3362" data-name="Rectangle 3362" width="2.97" height="2.97" transform="translate(10904.484 -224.053)" fill="#c5c0ca"/>
    <rect id="Rectangle_3363" data-name="Rectangle 3363" width="2.97" height="2.97" transform="translate(10910.425 -224.053)" fill="#d03727"/>
    <rect id="Rectangle_3364" data-name="Rectangle 3364" width="2.97" height="2.97" transform="translate(10916.359 -224.053)" fill="#c5c0ca"/>
    <g id="Group_2890" data-name="Group 2890" transform="translate(10922.3 -224.053)">
      <g id="Group_2889" data-name="Group 2889" transform="translate(0 0)" clip-path="url(#clip-path)">
        <rect id="Rectangle_3365" data-name="Rectangle 3365" width="2.97" height="2.97" fill="url(#linear-gradient-2)"/>
      </g>
    </g>
    <rect id="Rectangle_3367" data-name="Rectangle 3367" width="2.97" height="2.97" transform="translate(10928.241 -224.053)" fill="#c5c0ca"/>
    <rect id="Rectangle_3368" data-name="Rectangle 3368" width="2.97" height="2.97" transform="translate(10934.182 -224.053)" fill="#9e1d21"/>
    <rect id="Rectangle_3369" data-name="Rectangle 3369" width="2.97" height="2.97" transform="translate(10940.123 -224.053)" fill="#c5c0ca"/>
    <rect id="Rectangle_3370" data-name="Rectangle 3370" width="2.97" height="2.97" transform="translate(10946.058 -224.053)" fill="#9e1d21"/>
    <rect id="Rectangle_3371" data-name="Rectangle 3371" width="2.97" height="2.97" transform="translate(10856.97 -169.446)" fill="#c5c0ca"/>
    <rect id="Rectangle_3372" data-name="Rectangle 3372" width="2.97" height="2.97" transform="translate(10862.905 -169.446)" fill="#9e1d21"/>
    <rect id="Rectangle_3373" data-name="Rectangle 3373" width="2.97" height="2.97" transform="translate(10868.846 -169.446)" fill="#c5c0ca"/>
    <rect id="Rectangle_3374" data-name="Rectangle 3374" width="2.97" height="2.97" transform="translate(10874.787 -169.446)" fill="#9e1d21"/>
    <rect id="Rectangle_3375" data-name="Rectangle 3375" width="2.97" height="2.97" transform="translate(10880.728 -169.446)" fill="#c5c0ca"/>
    <g id="Group_2892" data-name="Group 2892" transform="translate(10886.668 -169.446)">
      <g id="Group_2891" data-name="Group 2891" transform="translate(0 0)" clip-path="url(#clip-path)">
        <rect id="Rectangle_3376" data-name="Rectangle 3376" width="2.97" height="2.97" fill="url(#linear-gradient-3)"/>
      </g>
    </g>
    <rect id="Rectangle_3378" data-name="Rectangle 3378" width="2.97" height="2.97" transform="translate(10892.603 -169.446)" fill="#c5c0ca"/>
    <rect id="Rectangle_3379" data-name="Rectangle 3379" width="2.97" height="2.97" transform="translate(10898.544 -169.446)" fill="#d03727"/>
    <rect id="Rectangle_3380" data-name="Rectangle 3380" width="2.97" height="2.97" transform="translate(10904.484 -169.446)" fill="#c5c0ca"/>
    <rect id="Rectangle_3381" data-name="Rectangle 3381" width="2.97" height="2.97" transform="translate(10910.425 -169.446)" fill="#d03727"/>
    <rect id="Rectangle_3382" data-name="Rectangle 3382" width="2.97" height="2.97" transform="translate(10916.359 -169.446)" fill="#c5c0ca"/>
    <g id="Group_2894" data-name="Group 2894" transform="translate(10922.3 -169.446)">
      <g id="Group_2893" data-name="Group 2893" transform="translate(0 0)" clip-path="url(#clip-path)">
        <rect id="Rectangle_3383" data-name="Rectangle 3383" width="2.97" height="2.97" fill="url(#linear-gradient-4)"/>
      </g>
    </g>
    <rect id="Rectangle_3385" data-name="Rectangle 3385" width="2.97" height="2.97" transform="translate(10928.241 -169.446)" fill="#c5c0ca"/>
    <rect id="Rectangle_3386" data-name="Rectangle 3386" width="2.97" height="2.97" transform="translate(10934.182 -169.446)" fill="#9e1d21"/>
    <rect id="Rectangle_3387" data-name="Rectangle 3387" width="2.97" height="2.97" transform="translate(10940.123 -169.446)" fill="#c5c0ca"/>
    <rect id="Rectangle_3388" data-name="Rectangle 3388" width="2.97" height="2.97" transform="translate(10946.058 -169.446)" fill="#9e1d21"/>
    <path id="Path_12570" data-name="Path 12570" d="M10.57,10.411a3.5,3.5,0,0,1,3.5-3.431,3.578,3.578,0,0,1,2.2.743.565.565,0,0,1,.1.763.554.554,0,0,1-.763.1,2.424,2.424,0,0,0-1.536-.522,2.529,2.529,0,0,0-1.716.686,2.348,2.348,0,0,0-.7,1.659,2.321,2.321,0,0,0,.7,1.659,2.51,2.51,0,0,0,1.716.686,2.38,2.38,0,0,0,1.531-.522.58.58,0,0,1,.763.1.565.565,0,0,1-.1.763,3.567,3.567,0,0,1-2.2.743,3.491,3.491,0,0,1-3.493-3.431" transform="translate(10844.859 -246.98)" fill="#231f20"/>
    <path id="Path_12571" data-name="Path 12571" d="M39.021,8a3.49,3.49,0,0,1,0,4.814,3.115,3.115,0,0,1-2.274,1.019,3.226,3.226,0,0,1-2.335-1.019,3.545,3.545,0,0,1,0-4.814A3.17,3.17,0,0,1,36.748,6.98,3.1,3.1,0,0,1,39.021,8m-.128,2.412a2.462,2.462,0,0,0-.645-1.664,2.055,2.055,0,0,0-3.047,0,2.424,2.424,0,0,0-.645,1.664A2.392,2.392,0,0,0,35.2,12.07a2.034,2.034,0,0,0,3.047,0,2.449,2.449,0,0,0,.645-1.659" transform="translate(10833.686 -246.98)" fill="#231f20"/>
    <path id="Path_12572" data-name="Path 12572" d="M59.354,13.56a.517.517,0,1,1-1.034,0V8.019a.517.517,0,0,1,.21-.44.523.523,0,0,1,.722.113l3.078,4.256V8.029a.521.521,0,0,1,.512-.517.527.527,0,0,1,.522.517V13.56a.525.525,0,0,1-.522.522.511.511,0,0,1-.389-.189l-.046-.056-3.047-4.23V13.56Z" transform="translate(10821.563 -247.225)" fill="#231f20"/>
    <path id="Path_12573" data-name="Path 12573" d="M84.959,8.415H83.443V13.5a.522.522,0,1,1-1.045,0V8.415H80.892a.527.527,0,0,1-.522-.533.515.515,0,0,1,.522-.522h4.066a.521.521,0,0,1,.522.522.53.53,0,0,1-.522.533" transform="translate(10810.805 -247.165)" fill="#231f20"/>
    <path id="Path_12574" data-name="Path 12574" d="M102.49,7.882a.515.515,0,0,1,.522-.522.53.53,0,0,1,.533.522V13.5a.527.527,0,0,1-.533.522.512.512,0,0,1-.522-.522Z" transform="translate(10800.012 -247.165)" fill="#231f20"/>
    <path id="Path_12575" data-name="Path 12575" d="M118.014,13.56a.526.526,0,0,1-.512.522.518.518,0,0,1-.522-.522V8.019a.517.517,0,0,1,.21-.44.523.523,0,0,1,.722.113l3.078,4.256V8.029a.521.521,0,0,1,.512-.517.53.53,0,0,1,.522.517V13.56a.525.525,0,0,1-.522.522.511.511,0,0,1-.389-.189l-.046-.056-3.052-4.23Z" transform="translate(10792.943 -247.225)" fill="#231f20"/>
    <path id="Path_12576" data-name="Path 12576" d="M142.06,14.023a2.747,2.747,0,0,1-2.75-2.75V7.882a.515.515,0,0,1,.522-.522.53.53,0,0,1,.533.522v3.39a1.7,1.7,0,0,0,3.39,0V7.882a.52.52,0,0,1,.533-.522.515.515,0,0,1,.522.522v3.39a2.747,2.747,0,0,1-2.75,2.75" transform="translate(10782.049 -247.165)" fill="#231f20"/>
    <path id="Path_12577" data-name="Path 12577" d="M165.449,12.455h-2.315l-.466,1.239a.536.536,0,0,1-.5.333.507.507,0,0,1-.179-.031.537.537,0,0,1-.312-.686l2.1-5.608a.534.534,0,0,1,.507-.333.525.525,0,0,1,.507.333l2.1,5.608a.539.539,0,0,1-.312.686.468.468,0,0,1-.179.031.513.513,0,0,1-.487-.333Zm-.394-1.045-.773-2.048-.773,2.048Z" transform="translate(10771.149 -247.17)" fill="#231f20"/>
    <path id="Path_12578" data-name="Path 12578" d="M183.37,13.5V7.882a.521.521,0,0,1,.522-.522.53.53,0,0,1,.533.522v5.085h2.581a.537.537,0,0,1,.522.533.531.531,0,0,1-.522.522h-3.119a.52.52,0,0,1-.517-.522" transform="translate(10760.553 -247.165)" fill="#231f20"/>
    <path id="Path_12579" data-name="Path 12579" d="M10.14,174.14v-5.618a.515.515,0,0,1,.522-.522h3.114a.528.528,0,0,1,.522.522.533.533,0,0,1-.522.533H11.195V170.8h2.217a.528.528,0,0,1,0,1.055H11.195V173.6h2.581a.537.537,0,0,1,.522.533.531.531,0,0,1-.522.522h-3.1l-.01.01a.522.522,0,0,1-.522-.527" transform="translate(10845.068 -325.54)" fill="#231f20"/>
    <path id="Path_12580" data-name="Path 12580" d="M45.284,174.2a.517.517,0,1,1-1.034,0v-5.541a.516.516,0,0,1,.932-.328l3.078,4.256v-3.923a.521.521,0,0,1,.512-.517.527.527,0,0,1,.522.517v5.531a.525.525,0,0,1-.522.522.511.511,0,0,1-.389-.19l-.046-.056-3.047-4.225V174.2Z" transform="translate(10828.429 -325.599)" fill="#231f20"/>
    <path id="Path_12581" data-name="Path 12581" d="M80.12,171.066a3.47,3.47,0,0,1,3.513-3.436,3.522,3.522,0,0,1,2.171.743.544.544,0,1,1-.666.86,2.455,2.455,0,0,0-1.506-.517,2.358,2.358,0,0,0-1.716.7,2.266,2.266,0,0,0,0,3.3,2.359,2.359,0,0,0,1.716.7,2.629,2.629,0,0,0,1.306-.364v-1.306H83.577a.546.546,0,0,1-.543-.543.531.531,0,0,1,.543-.533h1.895a.537.537,0,0,1,.553.533v2.1a.843.843,0,0,1-.031.164l-.02.046v.01a.475.475,0,0,1-.179.23,3.515,3.515,0,0,1-2.161.743,3.471,3.471,0,0,1-3.513-3.426" transform="translate(10810.927 -325.359)" fill="#231f20"/>
    <path id="Path_12582" data-name="Path 12582" d="M119.03,168.522a.515.515,0,0,1,.522-.522.53.53,0,0,1,.533.522v5.618a.527.527,0,0,1-.533.522.512.512,0,0,1-.522-.522Z" transform="translate(10791.942 -325.54)" fill="#231f20"/>
    <path id="Path_12583" data-name="Path 12583" d="M148.694,174.2a.517.517,0,1,1-1.034,0v-5.541a.517.517,0,0,1,.21-.44.523.523,0,0,1,.722.113l3.078,4.256v-3.923a.521.521,0,0,1,.512-.517.527.527,0,0,1,.522.517v5.531a.525.525,0,0,1-.522.522.511.511,0,0,1-.389-.19l-.046-.056-3.047-4.225V174.2Z" transform="translate(10777.975 -325.599)" fill="#231f20"/>
    <path id="Path_12584" data-name="Path 12584" d="M183.83,174.14v-5.618a.515.515,0,0,1,.522-.522h3.119a.528.528,0,0,1,.522.522.533.533,0,0,1-.522.533H184.89V170.8h2.217a.528.528,0,0,1,0,1.055H184.89V173.6h2.581a.537.537,0,0,1,.522.533.531.531,0,0,1-.522.522h-3.088l-.02-.01-.01.01a.508.508,0,0,1-.522-.517" transform="translate(10760.327 -325.54)" fill="#231f20"/>
    <path id="Path_12585" data-name="Path 12585" d="M137.121,71.21h0V68.24h0a13.366,13.366,0,0,0,0,26.732h0V92h0a10.4,10.4,0,0,1-10.258-8.732h10.222V79.947H126.863a10.4,10.4,0,0,1,10.258-8.737" transform="translate(10789.634 -276.868)" fill="#222829"/>
    <path id="Path_12586" data-name="Path 12586" d="M38.541,91.992h0a10.4,10.4,0,0,1,0-20.792h0V68.23h0a13.366,13.366,0,0,0,0,26.732h0Z" transform="translate(10837.73 -276.863)" fill="#222829"/>
    <path id="Path_12587" data-name="Path 12587" d="M149.679,94.975h-.174V94.8h.174v-2.97h.174v2.791a13.188,13.188,0,0,0,0-26.374v2.791h-.179v-2.97H149.5V67.9h.174a13.538,13.538,0,0,1,.005,27.075" transform="translate(10777.076 -276.702)" fill="#a3a1a2"/>
    <path id="Path_12588" data-name="Path 12588" d="M149.684,71.21h-.174V68.24h.174v2.97m0,23.757h-.174V92h.174v2.97" transform="translate(10777.071 -276.868)" fill="#23292a"/>
    <rect id="Rectangle_3389" data-name="Rectangle 3389" width="2.97" height="2.97" transform="translate(10940.123 -217.539)" fill="#9e1d21"/>
    <rect id="Rectangle_3390" data-name="Rectangle 3390" width="2.97" height="2.97" transform="translate(10946.058 -217.539)" fill="#c5c0ca"/>
    <rect id="Rectangle_3391" data-name="Rectangle 3391" width="2.97" height="2.97" transform="translate(10854 -175.96)" fill="#c5c0ca"/>
    <rect id="Rectangle_3392" data-name="Rectangle 3392" width="2.97" height="2.97" transform="translate(10859.94 -175.96)" fill="#9e1d21"/>
    <g id="Group_2896" data-name="Group 2896" transform="translate(10854 -217.539)">
      <g id="Group_2895" data-name="Group 2895" transform="translate(0)" clip-path="url(#clip-path-5)">
        <rect id="Rectangle_3393" data-name="Rectangle 3393" width="95.028" height="44.544" fill="url(#radial-gradient)"/>
      </g>
    </g>
  </g>
</svg>
